<svg width="40" height="40" viewBox="0 0 40 40" fill="none" xmlns="http://www.w3.org/2000/svg">
<path d="M20.0007 36.6668C29.2054 36.6668 36.6673 29.2049 36.6673 20.0002C36.6673 10.7954 29.2054 3.3335 20.0007 3.3335C10.7959 3.3335 3.33398 10.7954 3.33398 20.0002C3.33398 29.2049 10.7959 36.6668 20.0007 36.6668Z" stroke="#202020" stroke-width="3.33333" stroke-linecap="round" stroke-linejoin="round"/>
<path d="M15.1504 15C15.5422 13.8861 16.3156 12.9468 17.3336 12.3485C18.3517 11.7502 19.5485 11.5315 20.7124 11.7312C21.8762 11.9308 22.9318 12.5358 23.6922 13.4392C24.4526 14.3425 24.8688 15.4858 24.8671 16.6666C24.8671 20 19.8671 21.6666 19.8671 21.6666" stroke="#202020" stroke-width="3.33333" stroke-linecap="round" stroke-linejoin="round"/>
<path d="M20 28.3335H20.0167" stroke="#202020" stroke-width="3.33333" stroke-linecap="round" stroke-linejoin="round"/>
</svg>
