<svg width="40" height="40" viewBox="0 0 40 40" fill="none" xmlns="http://www.w3.org/2000/svg">
<g opacity="0.643127">
<path d="M18.3624 4.69002C18.4338 4.30769 18.6367 3.96238 18.9359 3.71388C19.2351 3.46539 19.6118 3.32936 20.0007 3.32936C20.3897 3.32936 20.7664 3.46539 21.0656 3.71388C21.3648 3.96238 21.5677 4.30769 21.6391 4.69002L23.3907 13.9534C23.5151 14.6119 23.8352 15.2177 24.3091 15.6916C24.783 16.1656 25.3888 16.4856 26.0474 16.61L35.3107 18.3617C35.6931 18.4331 36.0384 18.636 36.2869 18.9352C36.5354 19.2344 36.6714 19.6111 36.6714 20C36.6714 20.389 36.5354 20.7656 36.2869 21.0649C36.0384 21.3641 35.6931 21.5669 35.3107 21.6384L26.0474 23.39C25.3888 23.5144 24.783 23.8345 24.3091 24.3084C23.8352 24.7823 23.5151 25.3881 23.3907 26.0467L21.6391 35.31C21.5677 35.6923 21.3648 36.0377 21.0656 36.2862C20.7664 36.5346 20.3897 36.6707 20.0007 36.6707C19.6118 36.6707 19.2351 36.5346 18.9359 36.2862C18.6367 36.0377 18.4338 35.6923 18.3624 35.31L16.6107 26.0467C16.4863 25.3881 16.1663 24.7823 15.6924 24.3084C15.2184 23.8345 14.6126 23.5144 13.9541 23.39L4.69074 21.6384C4.30841 21.5669 3.96309 21.3641 3.7146 21.0649C3.4661 20.7656 3.33008 20.389 3.33008 20C3.33008 19.6111 3.4661 19.2344 3.7146 18.9352C3.96309 18.636 4.30841 18.4331 4.69074 18.3617L13.9541 16.61C14.6126 16.4856 15.2184 16.1656 15.6924 15.6916C16.1663 15.2177 16.4863 14.6119 16.6107 13.9534L18.3624 4.69002Z" stroke="#D2A17B" stroke-width="3.33333" stroke-linecap="round" stroke-linejoin="round"/>
<path d="M33.334 3.33333V9.99999" stroke="#D2A17B" stroke-width="3.33333" stroke-linecap="round" stroke-linejoin="round"/>
<path d="M36.6667 6.66667H30" stroke="#D2A17B" stroke-width="3.33333" stroke-linecap="round" stroke-linejoin="round"/>
<path d="M6.66732 36.6667C8.50827 36.6667 10.0007 35.1743 10.0007 33.3333C10.0007 31.4924 8.50827 30 6.66732 30C4.82637 30 3.33398 31.4924 3.33398 33.3333C3.33398 35.1743 4.82637 36.6667 6.66732 36.6667Z" stroke="#D2A17B" stroke-width="3.33333" stroke-linecap="round" stroke-linejoin="round"/>
</g>
</svg>
