<svg width="200" height="30" viewBox="0 0 200 30" fill="none" xmlns="http://www.w3.org/2000/svg">
<path d="M10 15H50M150 15H190" stroke="#905654" stroke-width="2"/>
<path d="M100 5L95 10L100 15L105 10L100 5Z" fill="#905654"/>
<path d="M70 18C71.6569 18 73 16.6569 73 15C73 13.3431 71.6569 12 70 12C68.3431 12 67 13.3431 67 15C67 16.6569 68.3431 18 70 18Z" fill="#D2A17B"/>
<path d="M130 18C131.657 18 133 16.6569 133 15C133 13.3431 131.657 12 130 12C128.343 12 127 13.3431 127 15C127 16.6569 128.343 18 130 18Z" fill="#D2A17B"/>
<path opacity="0.6" d="M85 15L90 12L95 15L90 18L85 15Z" fill="#A8C79B"/>
<path opacity="0.6" d="M105 15L110 12L115 15L110 18L105 15Z" fill="#A8C79B"/>
</svg>
