<svg width="28" height="28" viewBox="0 0 28 28" fill="none" xmlns="http://www.w3.org/2000/svg">
<path d="M16.1378 19.3291C16.3788 19.4397 16.6502 19.465 16.9075 19.4007C17.1647 19.3365 17.3924 19.1865 17.553 18.9756L17.9671 18.4331C18.1845 18.1433 18.4663 17.9081 18.7903 17.7461C19.1143 17.5841 19.4716 17.4997 19.8338 17.4997H23.3337C23.9526 17.4997 24.5461 17.7456 24.9836 18.1832C25.4212 18.6207 25.6671 19.2142 25.6671 19.8331V23.333C25.6671 23.9518 25.4212 24.5453 24.9836 24.9829C24.5461 25.4205 23.9526 25.6663 23.3337 25.6663C17.7643 25.6663 12.4229 23.4539 8.48467 19.5156C4.54645 15.5774 2.33398 10.236 2.33398 4.66656C2.33398 4.04773 2.57981 3.45424 3.01739 3.01666C3.45497 2.57908 4.04846 2.33325 4.66729 2.33325H8.16725C8.78608 2.33325 9.37957 2.57908 9.81715 3.01666C10.2547 3.45424 10.5006 4.04773 10.5006 4.66656V8.16652C10.5006 8.52875 10.4162 8.88601 10.2542 9.21001C10.0922 9.534 9.85702 9.81582 9.56724 10.0332L9.02124 10.4427C8.80706 10.6062 8.6561 10.8388 8.594 11.1011C8.5319 11.3633 8.56249 11.6389 8.68058 11.8811C10.275 15.1196 12.8974 17.7387 16.1378 19.3291Z" stroke="#FAF3E0" stroke-width="2.33331" stroke-linecap="round" stroke-linejoin="round"/>
</svg>
