<svg width="64" height="64" viewBox="0 0 64 64" fill="none" xmlns="http://www.w3.org/2000/svg">
<path d="M26.666 42.6667C27.9993 43.4667 29.866 44.0001 31.9993 44.0001C34.1327 44.0001 35.9993 43.4667 37.3327 42.6667" stroke="#905654" stroke-width="5.33333" stroke-linecap="round" stroke-linejoin="round"/>
<path d="M40 32H40.0267" stroke="#905654" stroke-width="5.33333" stroke-linecap="round" stroke-linejoin="round"/>
<path d="M51.6806 18.168C53.5503 20.8864 54.8393 23.9611 55.4673 27.2C56.369 27.6367 57.1295 28.3186 57.6616 29.1675C58.1937 30.0165 58.4759 30.9981 58.4759 32C58.4759 33.0019 58.1937 33.9835 57.6616 34.8325C57.1295 35.6814 56.369 36.3633 55.4673 36.8C54.3161 42.1693 51.3584 46.9814 47.0878 50.4334C42.8172 53.8854 37.492 55.7685 32.0006 55.7685C26.5093 55.7685 21.1841 53.8854 16.9135 50.4334C12.6429 46.9814 9.6852 42.1693 8.53398 36.8C7.63227 36.3633 6.8718 35.6814 6.3397 34.8325C5.80761 33.9835 5.52539 33.0019 5.52539 32C5.52539 30.9981 5.80761 30.0165 6.3397 29.1675C6.8718 28.3186 7.63227 27.6367 8.53398 27.2C9.63868 21.788 12.5764 16.9227 16.8514 13.425C21.1264 9.92723 26.4771 8.01115 32.0006 8C37.334 8 41.334 10.9333 41.334 14.6667C41.334 18.4 38.934 21.3333 36.0006 21.3333C33.8673 21.3333 32.0006 20.2667 32.0006 18.6667" stroke="#905654" stroke-width="5.33333" stroke-linecap="round" stroke-linejoin="round"/>
<path d="M24 32H24.0267" stroke="#905654" stroke-width="5.33333" stroke-linecap="round" stroke-linejoin="round"/>
</svg>
