<svg width="64" height="64" viewBox="0 0 64 64" fill="none" xmlns="http://www.w3.org/2000/svg">
<path d="M42.6673 56V50.6667C42.6673 47.8377 41.5435 45.1246 39.5431 43.1242C37.5427 41.1238 34.8296 40 32.0006 40H16.0007C13.1717 40 10.4586 41.1238 8.45818 43.1242C6.45779 45.1246 5.33398 47.8377 5.33398 50.6667V56" stroke="#905654" stroke-width="5.33333" stroke-linecap="round" stroke-linejoin="round"/>
<path d="M42.666 8.34106C44.9534 8.93405 46.9791 10.2698 48.4252 12.1386C49.8713 14.0074 50.6559 16.3034 50.6559 18.6664C50.6559 21.0294 49.8713 23.3254 48.4252 25.1942C46.9791 27.063 44.9534 28.3987 42.666 28.9917" stroke="#905654" stroke-width="5.33333" stroke-linecap="round" stroke-linejoin="round"/>
<path d="M58.666 55.9998V50.6664C58.6643 48.303 57.8776 46.0072 56.4297 44.1393C54.9817 42.2714 52.9544 40.9373 50.666 40.3464" stroke="#905654" stroke-width="5.33333" stroke-linecap="round" stroke-linejoin="round"/>
<path d="M24.0007 29.3333C29.8917 29.3333 34.6673 24.5577 34.6673 18.6667C34.6673 12.7756 29.8917 8 24.0007 8C18.1096 8 13.334 12.7756 13.334 18.6667C13.334 24.5577 18.1096 29.3333 24.0007 29.3333Z" stroke="#905654" stroke-width="5.33333" stroke-linecap="round" stroke-linejoin="round"/>
</svg>
