<svg width="37" height="32" viewBox="0 0 37 32" fill="none" xmlns="http://www.w3.org/2000/svg">
<path d="M1.66602 10.8602C1.66605 9.00555 2.22867 7.19452 3.27957 5.66632C4.33047 4.13812 5.82021 2.96465 7.55203 2.30088C9.28385 1.63712 11.1763 1.51429 12.9794 1.94862C14.7825 2.38295 16.4114 3.35402 17.651 4.73355C17.7383 4.82691 17.8439 4.90133 17.9611 4.95222C18.0784 5.0031 18.2049 5.02935 18.3327 5.02935C18.4605 5.02935 18.587 5.0031 18.7042 4.95222C18.8215 4.90133 18.927 4.82691 19.0144 4.73355C20.2501 3.34505 21.8794 2.36583 23.6854 1.92622C25.4914 1.48661 27.3885 1.60746 29.1241 2.27269C30.8598 2.93792 32.3517 4.11597 33.4012 5.65005C34.4508 7.18413 35.0082 9.00148 34.9994 10.8602C34.9994 14.6769 32.4994 17.5269 29.9994 20.0269L20.846 28.8819C20.5355 29.2386 20.1526 29.5251 19.7228 29.7224C19.293 29.9197 18.8261 30.0233 18.3532 30.0263C17.8802 30.0293 17.4121 29.9316 16.9798 29.7398C16.5476 29.5479 16.1611 29.2663 15.846 28.9136L6.66602 20.0269C4.16602 17.5269 1.66602 14.6935 1.66602 10.8602Z" stroke="#FAF3E0" stroke-width="3.33333" stroke-linecap="round" stroke-linejoin="round"/>
</svg>
