<svg width="40" height="40" viewBox="0 0 40 40" fill="none" xmlns="http://www.w3.org/2000/svg">
<path d="M33.3327 16.6668C33.3327 24.9885 24.101 33.6552 21.001 36.3318C20.7122 36.549 20.3607 36.6664 19.9993 36.6664C19.638 36.6664 19.2865 36.549 18.9977 36.3318C15.8977 33.6552 6.66602 24.9885 6.66602 16.6668C6.66602 13.1306 8.07077 9.73922 10.5713 7.23874C13.0717 4.73825 16.4631 3.3335 19.9993 3.3335C23.5356 3.3335 26.927 4.73825 29.4274 7.23874C31.9279 9.73922 33.3327 13.1306 33.3327 16.6668Z" stroke="#905654" stroke-width="3.33333" stroke-linecap="round" stroke-linejoin="round"/>
<path d="M20 21.6665C22.7614 21.6665 25 19.4279 25 16.6665C25 13.9051 22.7614 11.6665 20 11.6665C17.2386 11.6665 15 13.9051 15 16.6665C15 19.4279 17.2386 21.6665 20 21.6665Z" stroke="#905654" stroke-width="3.33333" stroke-linecap="round" stroke-linejoin="round"/>
</svg>
