<svg width="40" height="40" viewBox="0 0 40 40" fill="none" xmlns="http://www.w3.org/2000/svg">
<path d="M18.3624 4.68988C18.4338 4.30755 18.6367 3.96224 18.9359 3.71375C19.2351 3.46525 19.6118 3.32922 20.0007 3.32922C20.3897 3.32922 20.7664 3.46525 21.0656 3.71375C21.3648 3.96224 21.5677 4.30755 21.6391 4.68988L23.3907 13.9532C23.5151 14.6118 23.8352 15.2176 24.3091 15.6915C24.783 16.1654 25.3888 16.4855 26.0474 16.6099L35.3107 18.3615C35.6931 18.433 36.0384 18.6358 36.2869 18.935C36.5354 19.2342 36.6714 19.6109 36.6714 19.9999C36.6714 20.3888 36.5354 20.7655 36.2869 21.0647C36.0384 21.3639 35.6931 21.5668 35.3107 21.6382L26.0474 23.3899C25.3888 23.5143 24.783 23.8343 24.3091 24.3083C23.8352 24.7822 23.5151 25.388 23.3907 26.0465L21.6391 35.3099C21.5677 35.6922 21.3648 36.0375 21.0656 36.286C20.7664 36.5345 20.3897 36.6705 20.0007 36.6705C19.6118 36.6705 19.2351 36.5345 18.9359 36.286C18.6367 36.0375 18.4338 35.6922 18.3624 35.3099L16.6107 26.0465C16.4863 25.388 16.1663 24.7822 15.6924 24.3083C15.2184 23.8343 14.6126 23.5143 13.9541 23.3899L4.69074 21.6382C4.30841 21.5668 3.96309 21.3639 3.7146 21.0647C3.4661 20.7655 3.33008 20.3888 3.33008 19.9999C3.33008 19.6109 3.4661 19.2342 3.7146 18.935C3.96309 18.6358 4.30841 18.433 4.69074 18.3615L13.9541 16.6099C14.6126 16.4855 15.2184 16.1654 15.6924 15.6915C16.1663 15.2176 16.4863 14.6118 16.6107 13.9532L18.3624 4.68988Z" stroke="#FAF3E0" stroke-width="3.33333" stroke-linecap="round" stroke-linejoin="round"/>
<path d="M33.334 3.33337V10" stroke="#FAF3E0" stroke-width="3.33333" stroke-linecap="round" stroke-linejoin="round"/>
<path d="M36.6667 6.66663H30" stroke="#FAF3E0" stroke-width="3.33333" stroke-linecap="round" stroke-linejoin="round"/>
<path d="M6.66732 36.6667C8.50827 36.6667 10.0007 35.1743 10.0007 33.3333C10.0007 31.4924 8.50827 30 6.66732 30C4.82637 30 3.33398 31.4924 3.33398 33.3333C3.33398 35.1743 4.82637 36.6667 6.66732 36.6667Z" stroke="#FAF3E0" stroke-width="3.33333" stroke-linecap="round" stroke-linejoin="round"/>
</svg>
